Release Brought to you by CrEwSaDe
                                       

**Putty.Hill.2010.DVDRip.XviD.AC3.CrEwSaDe**


Encoder ..........: DarthMidal                                                    
Video Codec.......: XviD
Video Bitrate.....: 996 Kbps                              
Audio Codec.......: AC-3                              
Audio Bitrate.....: 128 kbps                          
Resolution........: 720x384
Runtime...........: 1h 26mn                              
Release Date......: 11/11/11
Theatre Date......: 17 June 2011 (UK)
Language..........: English
Subtitles.........: no
IMDB Rating.......: 6.3
IMDb URL..........: http://www.imdb.com/title/tt1530975/


General

Format                           : AVI
Format/Info                      : Audio Video Interleave
File size                        : 699 MiB
Duration                         : 1h 26mn
Overall bit rate                 : 1 132 Kbps

Video
ID                               : 0
Format                           : MPEG-4 Visual
Format profile                   : Advanced Simple@L5
Format settings, BVOP            : 2
Format settings, QPel            : No
Format settings, GMC             : No warppoints
Format settings, Matrix          : Default (H.263)
Codec ID                         : XVID
Codec ID/Hint                    : XviD
Duration                         : 1h 26mn
Bit rate                         : 996 Kbps
Width                            : 720 pixels
Height                           : 384 pixels
Display aspect ratio             : 1.875
Frame rate                       : 23.976 fps
Color space                      : YUV
Chroma subsampling               : 4:2:0
Bit depth                        : 8 bits
Scan type                        : Progressive
Compression mode                 : Lossy
Bits/(Pixel*Frame)               : 0.150
Stream size                      : 615 MiB (88%)
Writing library                  : XviD 1.2.1 (UTC 2008-12-04)

Audio
ID                               : 1
Format                           : AC-3
Format/Info                      : Audio Coding 3
Mode extension                   : CM (complete main)
Codec ID                         : 2000
Duration                         : 1h 26mn
Bit rate mode                    : Constant
Bit rate                         : 128 Kbps
Channel(s)                       : 2 channels
Channel positions                : Front: L R
Sampling rate                    : 48.0 KHz
Bit depth                        : 16 bits
Compression mode                 : Lossy
Stream size                      : 79.0 MiB (11%)
Alignment                        : Aligned on interleaves
Interleave, duration             : 64 ms (1.53 video frames)
Interleave, preload duration     : 192 ms
Title                            : VTS_01_1 T80 2_0ch 192Kbps DELAY 0ms_new


SOURCES: Putty.Hill.2010.R1.NTSC.DVDR-CME Thank you :-D

VIDEO: Putty.Hill.2010.R1.NTSC.DVDR-CME Thank you :-D
AUDIO: Putty.Hill.2010.R1.NTSC.DVDR-CME Thank you :-D

Plot: A young man's untimely death unites a fractured family and their community through shared memory and loss.


Poster:

 
http://i.imgur.com/CWUeR.jpg


Screenshots:

 
http://i.imgur.com/Val00.jpg


ENJOY!